<svg xmlns="http://www.w3.org/2000/svg" viewBox="275 355 290 260" width="290" height="260">
<path d="M0 0 C29.95335816 -3.14534456 29.95335816 -3.14534456 37.65820312 1.65673828 C41.76458227 6.13614436 43.84343535 11.54982188 45.90039062 17.19873047 C47.67660029 21.72364825 50.2244281 25.73716264 52.75 29.875 C53.66904679 31.45674987 54.58325354 33.04132359 55.4921875 34.62890625 C55.92112305 35.37543457 56.35005859 36.12196289 56.79199219 36.89111328 C58.49320707 39.86101914 60.18375733 42.83690359 61.875 45.8125 C64.70953503 50.78881202 67.6064538 55.72402659 70.53100586 60.64794922 C75.8599648 69.62196321 81.13479079 78.6252565 86.3125 87.6875 C87.16654419 89.16657837 87.16654419 89.16657837 88.0378418 90.67553711 C88.81768433 92.04850952 88.81768433 92.04850952 89.61328125 93.44921875 C90.07516846 94.25705811 90.53705566 95.06489746 91.01293945 95.8972168 C92 98 92 98 92 101 C87.28661372 101.29819461 82.57876696 101.51498014 77.8581543 101.65917969 C76.25594476 101.71929284 74.65438753 101.80102546 73.05444336 101.90527344 C67.81667988 102.23782985 63.10563411 102.33219243 58 101 C54.30007159 97.29666529 51 92.43242895 51 87 C50.34 87 49.68 87 49 87 C48.55914062 86.04867187 48.55914062 86.04867187 48.109375 85.078125 C44.7543183 78.09806451 40.98511537 71.44942993 37 64.8125 C36.50209961 63.98202148 36.00419922 63.15154297 35.49121094 62.29589844 C33.03763217 58.24195002 30.5198342 54.25878702 27.85546875 50.33984375 C25.32919219 46.58747109 23.27301492 42.82640865 21.3125 38.75 C19.7332232 35.48253075 18.18383613 32.30120519 16.29296875 29.203125 C15 27 15 27 15 25 C14.34 25 13.68 25 13 25 C12.649375 24.071875 12.29875 23.14375 11.9375 22.1875 C10.05142123 17.73851994 7.4028921 13.84641804 4.71875 9.84375 C2.78433288 6.64316895 1.44495724 3.44722617 0 0 Z " fill="#8DD04E" transform="translate(336,457)"/>
<path d="M0 0 C1.41422182 -0.0073594 2.82843766 -0.01595099 4.24264526 -0.02566528 C8.0487269 -0.04769589 11.85459088 -0.05082126 15.6607275 -0.04891777 C18.8559727 -0.04879719 22.05117323 -0.05739711 25.24640584 -0.06569529 C32.79548642 -0.08486381 40.34445646 -0.08783754 47.89355469 -0.08105469 C55.6394337 -0.07442211 63.38483554 -0.0972616 71.13061786 -0.13436842 C77.81813093 -0.1652239 84.50549178 -0.17640831 91.19307446 -0.1725316 C95.17078139 -0.17048001 99.14811686 -0.17569328 103.12575531 -0.20042419 C125.39032277 -0.32789565 143.66153422 -0.30945182 160.91503906 15.66601562 C173.21173857 28.25204924 176.79375578 42.69286421 176.77978516 59.79174805 C176.78650238 60.98831024 176.7932196 62.18487244 176.80014038 63.41769409 C176.81578662 66.67217782 176.82248977 69.92650762 176.82377195 73.18102431 C176.8252025 75.22314951 176.82948906 77.26524865 176.83476639 79.30736732 C176.85322164 86.45696308 176.8614429 93.60648473 176.85986328 100.75610352 C176.85866394 107.37946434 176.87973693 114.00249825 176.91135061 120.62577647 C176.93766277 126.34592574 176.94822434 132.06596923 176.94695246 137.78617841 C176.94644708 141.18761409 176.95189122 144.58875889 176.97330856 147.99013329 C177.14229729 180.47756237 177.14229729 180.47756237 169.48925781 192.41992188 C168.93238281 193.32742188 168.37550781 194.23492188 167.80175781 195.16992188 C160.37945474 205.60126674 151.60951218 212.99136739 139.48925781 217.41992188 C138.56179245 217.76842194 137.63432709 218.116922 136.67875671 218.47598267 C130.68584194 220.14712053 124.37651798 219.7155404 118.20727539 219.71044922 C116.75774797 219.7164402 115.30822372 219.72324705 113.85870361 219.73080444 C109.93486663 219.74841702 106.01111697 219.75315791 102.08724427 219.75443602 C99.63057383 219.75586124 97.17392533 219.76013793 94.71726036 219.76543045 C86.13172379 219.78391736 77.54624917 219.79210303 68.96069336 219.79052734 C60.98258991 219.78932737 53.00475762 219.81040475 45.02672273 219.84201467 C38.15764824 219.8682519 31.28866188 219.87889148 24.41953772 219.87761652 C20.32567944 219.87710893 16.23206213 219.88267855 12.13825417 219.90397263 C8.28278984 219.92348031 4.42779319 219.92339507 0.5723114 219.90893936 C-0.83364872 219.90686534 -2.23963909 219.91146713 -3.64554787 219.92366028 C-20.02153802 220.05635692 -33.12840813 215.13658117 -45.08105469 203.94726562 C-51.24822663 197.53221699 -55.83708905 190.91270243 -58.51074219 182.41992188 C-58.84074219 182.08992187 -59.17074219 181.75992188 -59.51074219 181.41992188 C-60.55714743 174.235712 -60.67654234 167.13682708 -60.70361328 159.88623047 C-60.71179077 158.66055359 -60.71996826 157.43487671 -60.72839355 156.17205811 C-60.75309631 152.13749502 -60.76989513 148.102969 -60.78417969 144.06835938 C-60.78954867 142.66917543 -60.79492618 141.26999152 -60.80031204 139.87080765 C-60.82190417 134.04406057 -60.84063512 128.217316 -60.85193443 122.39053917 C-60.86814454 114.09177491 -60.90129262 105.79348067 -60.95833528 97.49489343 C-60.99724829 91.63040745 -61.01659201 85.76604608 -61.021855 79.90143454 C-61.02547877 76.41269559 -61.03717761 72.92446059 -61.06995773 69.43586349 C-61.25054432 49.21187746 -60.98060944 33.00117953 -46.51074219 17.41992188 C-32.74714413 3.9754395 -19.08445621 -0.04312419 0 0 Z M-30.51074219 9.41992188 C-30.51074219 10.07992188 -30.51074219 10.73992187 -30.51074219 11.41992188 C-31.59355469 11.82210938 -31.59355469 11.82210938 -32.69824219 12.23242188 C-42.90716889 16.54285759 -49.31360613 25.85672015 -53.53919983 35.8528595 C-57.79873383 48.15045551 -57.08081575 60.86115843 -57.01511264 73.71832633 C-57.00109307 77.14976993 -57.00774082 80.5811875 -57.01124573 84.01264954 C-57.01393359 89.76771577 -57.00059226 95.52257173 -56.97729492 101.27758789 C-56.95065602 107.90335242 -56.94895545 114.52876667 -56.96068329 121.15456647 C-56.97150952 127.56930949 -56.96523864 133.98392751 -56.95112801 140.39866066 C-56.94541384 143.11090919 -56.94541432 145.82306485 -56.95019341 148.53531456 C-56.95312032 152.32998795 -56.9365282 156.12409906 -56.91479492 159.91870117 C-56.91929657 161.02600082 -56.92379822 162.13330048 -56.92843628 163.27415466 C-56.78316734 178.62524852 -51.43860553 191.09575582 -40.84277344 202.20117188 C-29.47725916 213.01459249 -15.30168135 216.19404901 -0.02661133 216.05102539 C1.34864722 216.0561829 2.72389911 216.06347781 4.09913635 216.07270813 C7.78541138 216.09099997 11.47094991 216.07842634 15.15719295 216.05861783 C19.04674197 216.0420401 22.93625123 216.0510706 26.82582092 216.05613708 C33.35429426 216.06063751 39.88247919 216.04491792 46.41088867 216.0168457 C53.91652033 215.98481653 61.4216319 215.98481106 68.92730039 216.00206047 C76.20008364 216.01802668 83.47267954 216.01112679 90.74545479 215.99412346 C93.81643339 215.98732099 96.88725871 215.98821426 99.95823479 215.99566841 C130.69743404 216.56423661 130.69743404 216.56423661 156.95019531 202.13085938 C168.70672366 189.82751575 172.95236386 176.38067393 172.90917969 159.62744141 C172.91764923 158.39825989 172.92611877 157.16907837 172.93484497 155.90264893 C172.95409907 152.56350939 172.96000192 149.22493145 172.95809746 145.88577509 C172.95797684 143.0829765 172.96657787 140.28022878 172.97487497 137.47744453 C172.99403675 130.85716078 172.99701922 124.23700308 172.99023438 117.61669922 C172.98359724 110.82108117 173.0064609 104.02600638 173.04354811 97.23049843 C173.07438419 91.36427316 173.08559024 85.49822143 173.08171129 79.63191688 C173.07965826 76.14220182 173.0848959 72.65291001 173.10960388 69.16327286 C173.13629469 65.26570137 173.12203762 61.36882556 173.10449219 57.47119141 C173.11775543 56.33831696 173.13101868 55.2054425 173.14468384 54.03823853 C173.00811098 40.89141329 167.79478771 29.57755041 159.17675781 19.79492188 C158.28988281 19.01117188 157.40300781 18.22742188 156.48925781 17.41992188 C155.91175781 16.87722656 155.33425781 16.33453125 154.73925781 15.77539062 C139.04672139 2.1335834 119.86293238 3.54424421 100.37662792 3.67983198 C96.30904999 3.70272996 92.24151319 3.69422593 88.17388916 3.69033813 C81.35208507 3.68858135 74.53068196 3.71054688 67.70898438 3.74755859 C59.85163373 3.78994846 51.99486804 3.79689386 44.13742614 3.78443468 C36.53410831 3.7730016 28.93099386 3.78438789 21.32770538 3.80678177 C18.11108848 3.81600655 14.89459732 3.81785106 11.67797089 3.81361008 C7.88549726 3.80981114 4.09360955 3.82630157 0.30126953 3.85773087 C-1.73350337 3.87010145 -3.76836554 3.86325413 -5.80316162 3.85559082 C-14.7030567 3.95740025 -22.49811104 5.4136063 -30.51074219 9.41992188 Z " fill="#AFED67" transform="translate(352.5107421875,376.580078125)"/>
<path d="M0 0 C1.43352212 0.00015908 2.86704998 0.00585132 4.30053711 0.01586914 C5.43041298 0.01799156 5.43041298 0.01799156 6.58311462 0.02015686 C8.99807646 0.02577163 11.41294687 0.03832656 13.82788086 0.05102539 C15.46134307 0.05603849 17.09480672 0.06060173 18.72827148 0.06469727 C22.74067671 0.07574585 26.75301326 0.09302033 30.76538086 0.11352539 C27.66553903 6.41146382 24.57743342 12.66237724 20.95288086 18.67602539 C19.23473855 21.53201028 17.81992418 23.94989542 16.76538086 27.11352539 C16.10538086 27.11352539 15.44538086 27.11352539 14.76538086 27.11352539 C14.52174805 27.95399414 14.27811523 28.79446289 14.02709961 29.66040039 C12.61661522 33.52067346 10.70575821 36.871843 8.57788086 40.36352539 C7.68592882 41.85231448 6.79540345 43.34195887 5.90600586 44.83227539 C5.41293945 45.65727539 4.91987305 46.48227539 4.41186523 47.33227539 C1.16704264 52.81344666 -1.99689441 58.34184742 -5.17211914 63.86352539 C-6.45169851 66.08769579 -7.73162591 68.31166602 -9.01196289 70.53540039 C-9.56102295 71.49027344 -10.11008301 72.44514648 -10.67578125 73.42895508 C-11.44740601 74.75781738 -11.44740601 74.75781738 -12.23461914 76.11352539 C-12.75483643 77.05357422 -13.27505371 77.99362305 -13.81103516 78.9621582 C-14.28081787 79.67210937 -14.75060059 80.38206055 -15.23461914 81.11352539 C-15.89461914 81.11352539 -16.55461914 81.11352539 -17.23461914 81.11352539 C-17.56461914 79.79352539 -17.89461914 78.47352539 -18.23461914 77.11352539 C-18.89461914 77.11352539 -19.55461914 77.11352539 -20.23461914 77.11352539 C-20.75411133 76.05133789 -21.27360352 74.98915039 -21.80883789 73.89477539 C-22.51245334 72.46729171 -23.21693647 71.04023551 -23.92211914 69.61352539 C-24.28426514 68.87827637 -24.64641113 68.14302734 -25.01953125 67.38549805 C-26.91597367 63.5824921 -28.86892279 59.98677437 -31.29711914 56.48852539 C-33.23461914 53.11352539 -33.23461914 53.11352539 -33.35961914 50.11352539 C-32.42091767 47.61032146 -31.51564348 45.86143412 -30.08618164 43.65258789 C-26.72537756 38.35699512 -23.62067476 32.91913051 -20.48461914 27.48852539 C-4.63116883 0.16254008 -4.63116883 0.16254008 0 0 Z " fill="#9ADD54" transform="translate(454.234619140625,456.886474609375)"/>
<path d="M0 0 C0.33 0 0.66 0 1 0 C1.33 30.69 1.66 61.38 2 93 C2.33 88.38 2.66 83.76 3 79 C3.33 79 3.66 79 4 79 C4.00586624 79.58944901 4.01173248 80.17889801 4.01777649 80.78620911 C4.08212919 86.96804616 4.16665238 93.1493826 4.26245117 99.33081055 C4.29553299 101.63217534 4.32361601 103.933618 4.34643555 106.23510742 C4.38029092 109.55941698 4.43262117 112.88302355 4.48828125 116.20703125 C4.49467117 117.2220723 4.5010611 118.23711334 4.50764465 119.28291321 C4.81457628 134.48184583 10.25194764 146.86193353 20.734375 157.84765625 C31.50615472 168.08084698 46.11560432 170.76563898 60.48413086 170.63110352 C61.85938941 170.63626103 63.2346413 170.64355594 64.60987854 170.65278625 C68.29615357 170.67107809 71.98169209 170.65850446 75.66793513 170.63869596 C79.55748415 170.62211822 83.44699342 170.63114872 87.33656311 170.63621521 C93.86503645 170.64071563 100.39322138 170.62499605 106.92163086 170.59692383 C114.42726252 170.56489465 121.93237409 170.56488919 129.43804258 170.5821386 C136.71082582 170.59810481 143.98342173 170.59120491 151.25619698 170.57420158 C154.32717557 170.56739912 157.3980009 170.56829239 160.46897697 170.57574654 C191.0483045 171.16684533 191.0483045 171.16684533 217.23828125 156.93359375 C229.12821679 144.41669363 232.42757934 130.40388054 232.51171875 113.58203125 C232.52860791 112.23010169 232.54676367 110.87818743 232.56611633 109.52629089 C232.61316392 106.00671169 232.64326313 102.48719448 232.66955566 98.96740723 C232.69959269 95.36030837 232.74604196 91.75342245 232.79101562 88.14648438 C232.87653203 81.09777904 232.94410385 74.04900767 233 67 C233.33 67 233.66 67 234 67 C234.33 84.16 234.66 101.32 235 119 C235.33 109.76 235.66 100.52 236 91 C236.33 91 236.66 91 237 91 C237.10037953 95.99465352 237.17216457 100.98869465 237.21972656 105.98413086 C237.23959476 107.67629244 237.26669907 109.36838771 237.30175781 111.06030273 C237.5624024 123.98137499 237.2907017 136.79145445 230 148 C229.443125 148.9075 228.88625 149.815 228.3125 150.75 C220.89019692 161.18134486 212.12025437 168.57144552 200 173 C199.07253464 173.34850006 198.14506927 173.69700012 197.1894989 174.05606079 C191.19658413 175.72719866 184.88726017 175.29561853 178.71801758 175.29052734 C177.26849015 175.29651832 175.81896591 175.30332517 174.3694458 175.31088257 C170.44560881 175.32849514 166.52185916 175.33323603 162.59798646 175.33451414 C160.14131602 175.33593937 157.68466752 175.34021605 155.22800255 175.34550858 C146.64246598 175.36399549 138.05699136 175.37218116 129.47143555 175.37060547 C121.4933321 175.36940549 113.51549981 175.39048287 105.53746492 175.4220928 C98.66839043 175.44833003 91.79940407 175.45896961 84.93027991 175.45769465 C80.83642163 175.45718706 76.74280432 175.46275668 72.64899635 175.48405075 C68.79353203 175.50355843 64.93853538 175.50347319 61.08305359 175.48901749 C59.67709347 175.48694347 58.2711031 175.49154525 56.86519432 175.5037384 C40.48920417 175.63643504 27.38233406 170.7166593 15.4296875 159.52734375 C9.26251556 153.11229512 4.67365314 146.49278055 2 138 C1.67 137.67 1.34 137.34 1 137 C-0.07246496 129.73134579 -0.13617563 122.56485406 -0.11352539 115.22827148 C-0.11367142 113.97850021 -0.11381744 112.72872894 -0.1139679 111.44108582 C-0.11339379 108.04087648 -0.10840531 104.64072911 -0.10139394 101.24053073 C-0.09510977 97.67712512 -0.09455261 94.11371853 -0.09336853 90.55030823 C-0.09027007 83.81448312 -0.08207684 77.07867439 -0.07201904 70.34285647 C-0.06081161 62.66927729 -0.05533582 54.9956973 -0.05032361 47.32211196 C-0.03989287 31.54806518 -0.02232239 15.77403471 0 0 Z " fill="#4C7B32" transform="translate(292,421)"/>
<path d="M0 0 C18.75963255 -0.11720609 37.51919 -0.20516965 56.27911377 -0.25906086 C64.99121396 -0.28475729 73.70308563 -0.3197423 82.41503906 -0.37719727 C90.01528528 -0.42729634 97.61536585 -0.4593531 105.21577263 -0.47044247 C109.23396204 -0.47691681 113.25167791 -0.49195032 117.26971436 -0.52865028 C139.68217761 -0.72523668 158.04635743 -0.84596534 175.42578125 15.24609375 C189.92966054 30.09124079 191.31306338 46.63472214 191.23046875 66.2421875 C191.22927266 68.13379891 191.22882469 70.02541093 191.2290802 71.91702271 C191.22752012 75.882708 191.21927985 79.84830244 191.20581055 83.81396484 C191.18902885 88.80928406 191.18507331 93.8045027 191.18563652 98.79984665 C191.18498478 120.21975525 191.02505618 141.60113777 190 163 C189.34 163.33 188.68 163.66 188 164 C187.9943015 163.39353543 187.988603 162.78707087 187.98273182 162.16222858 C187.84190251 147.35290066 187.67405961 132.54405995 187.476758 117.73538685 C187.38198112 110.5737515 187.29609252 103.41222237 187.23168945 96.25024414 C187.17548187 90.00222613 187.10202524 83.75467995 187.00850838 77.50710505 C186.95965118 74.20401511 186.92156643 70.9013906 186.89904213 67.59800148 C186.76223373 48.63628204 185.66871245 34.0724904 172.625 19.3125 C171.75875 18.549375 170.8925 17.78625 170 17 C169.24396484 16.29617188 169.24396484 16.29617188 168.47265625 15.578125 C162.87267781 10.82365753 156.4458503 8.68333951 149.609375 6.296875 C146.92751923 5.33326449 144.4903281 4.36069474 142 3 C142 2.34 142 1.68 142 1 C95.14 1 48.28 1 0 1 C0 0.67 0 0.34 0 0 Z " fill="#A5C464" transform="translate(338,377)"/>
<path d="M0 0 C-4.40342645 2.93561763 -7.92534875 1.88437906 -13 1 C-14.71101435 0.48804295 -16.41921534 -0.0333792 -18.125 -0.5625 C-38.04709631 -5.78754593 -63.37516805 -2.41154931 -81.14453125 7.80859375 C-83.80513815 9.48585708 -86.41357082 11.21112825 -89 13 C-92.6441774 15.4294516 -94.71241272 15.16179575 -99 15 C-97.50161671 10.60474235 -94.14158898 8.813649 -90.375 6.5 C-89.78332031 6.12230469 -89.19164062 5.74460937 -88.58203125 5.35546875 C-62.22282319 -11.21154971 -28.1413264 -14.0706632 0 0 Z " fill="#B6E46D" transform="translate(449,425)"/>
<path d="M0 0 C1.20734802 -0.00137466 2.41469604 -0.00274933 3.65863037 -0.00416565 C4.99839807 -0.00062653 6.33816553 0.00300828 7.67793274 0.00672913 C9.0872243 0.00701117 10.49651602 0.00685293 11.9058075 0.00628662 C15.73403299 0.0059993 19.56222725 0.01188547 23.39044547 0.01886058 C27.39031043 0.025105 31.39017608 0.02569878 35.39004517 0.02688599 C42.96542758 0.02999608 50.54079559 0.03820516 58.11617166 0.04823548 C66.74001712 0.05940658 75.36386327 0.06490958 83.98771417 0.06993091 C101.72861877 0.08038802 119.46950995 0.09798126 137.21040344 0.12025452 C137.21040344 0.78025452 137.21040344 1.44025452 137.21040344 2.12025452 C138.20040344 2.45025452 139.19040344 2.78025452 140.21040344 3.12025452 C121.07853609 3.16692472 101.94668026 3.20221888 82.81476784 3.22387886 C73.93197861 3.23420218 65.04922469 3.24828261 56.16645813 3.27113342 C48.4264468 3.29103506 40.68646104 3.30396327 32.94642484 3.30843151 C28.84613911 3.31104437 24.74592655 3.31720751 20.64566422 3.33171463 C16.78962577 3.34524766 12.93369093 3.34948589 9.077631 3.34646988 C7.65941493 3.34702197 6.24119555 3.35102486 4.82299995 3.35866547 C2.89255885 3.36855925 0.96206266 3.36504505 -0.96839905 3.36076355 C-2.05058401 3.36260714 -3.13276897 3.36445072 -4.24774742 3.36635017 C-6.78959656 3.12025452 -6.78959656 3.12025452 -8.78959656 1.12025452 C-5.60177797 0.05764832 -3.34948678 -0.00293557 0 0 Z " fill="#C4E272" transform="translate(342.7895965576172,377.87974548339844)"/>
<path d="M0 0 C0.598125 -0.00257813 1.19625 -0.00515625 1.8125 -0.0078125 C4 0.125 4 0.125 6.9921875 0.63330078 C11.76478389 1.32273219 16.50113986 1.18628346 21.3125 1.125 C31.40412113 1.06267195 41.47698618 1.24819867 51.5625 1.5625 C52.62759293 1.59559769 52.62759293 1.59559769 53.71420288 1.62936401 C58.06944107 1.76593299 62.42447911 1.90821102 66.77947998 2.05212402 C70.5416985 2.17559751 74.30405831 2.2946095 78.06640625 2.4140625 C85.37774453 2.6468198 92.68891874 2.88429004 100 3.125 C100 3.455 100 3.785 100 4.125 C53.8 4.125 7.6 4.125 -40 4.125 C-36.12055372 2.18527686 -34.55239366 1.85239759 -30.38671875 1.74609375 C-29.30326172 1.71193359 -28.21980469 1.67777344 -27.10351562 1.64257812 C-25.41258789 1.60293945 -25.41258789 1.60293945 -23.6875 1.5625 C-15.798045 1.34828603 -7.8330448 -0.03376312 0 0 Z " fill="#1B2A13" transform="translate(380,372.875)"/>
<path d="M0 0 C0.33 0 0.66 0 1 0 C1.85523244 5.16919804 2.14347225 10.18672447 2.12939453 15.4284668 C2.13114685 16.242827 2.13289917 17.05718719 2.13470459 17.89622498 C2.13909151 20.58057819 2.13619044 23.26486488 2.1328125 25.94921875 C2.1334878 27.84511833 2.1344597 29.74101783 2.13571167 31.63691711 C2.13718553 35.62050192 2.13504911 39.6040643 2.13037109 43.58764648 C2.12475471 48.60658541 2.12798913 53.62547035 2.13382339 58.64440727 C2.15486176 80.11763129 2.04075011 101.54792299 1 123 C0.01 123.495 0.01 123.495 -1 124 C-1.6816602 95.06026112 -2.09898607 66.13463377 -2.0625 37.1875 C-2.06164398 36.50344212 -2.06078796 35.81938423 -2.05990601 35.11459732 C-2.04864029 26.74303964 -2.02875376 18.3715162 -2 10 C-1.67 10 -1.34 10 -1 10 C-1 27.49 -1 44.98 -1 63 C-0.34 63 0.32 63 1 63 C0.67 42.21 0.34 21.42 0 0 Z " fill="#79B54F" transform="translate(527,417)"/>
<path d="M0 0 C1.1446875 0.495 1.1446875 0.495 2.3125 1 C4.99069135 2.17436686 4.99069135 2.17436686 8 2 C7.67 3.32 7.34 4.64 7 6 C7.66 6 8.32 6 9 6 C9.33 8.64 9.66 11.28 10 14 C10.969375 13.979375 11.93875 13.95875 12.9375 13.9375 C16 14 16 14 17 15 C18.95774754 15.04789596 20.91701352 15.03685622 22.875 15 C28.97975484 14.94603532 34.93675505 15.31955568 41 16 C40.34 15.01 39.68 14.02 39 13 C37.35 13.33 35.7 13.66 34 14 C33.875 7.25 33.875 7.25 35 5 C34.34 4.67 33.68 4.34 33 4 C33.33 2.68 33.66 1.36 34 0 C37.22818302 2.7699236 39.11911098 6.3494617 41.1875 10 C41.55552734 10.6290625 41.92355469 11.258125 42.30273438 11.90625 C45 16.630218 45 16.630218 45 20 C40.28661372 20.29819461 35.57876696 20.51498014 30.8581543 20.65917969 C29.25594476 20.71929284 27.65438753 20.80102546 26.05444336 20.90527344 C20.81667988 21.23782985 16.10563411 21.33219243 11 20 C7.30007159 16.29666529 4 11.43242895 4 6 C3.34 6 2.68 6 2 6 C1.34 4.02 0.68 2.04 0 0 Z " fill="#5B9538" transform="translate(383,538)"/>
<path d="M0 0 C0.33 0 0.66 0 1 0 C1.33 17.16 1.66 34.32 2 52 C2.33 42.76 2.66 33.52 3 24 C3.33 24 3.66 24 4 24 C4.10037953 28.99465352 4.17216457 33.98869465 4.21972656 38.98413086 C4.23959476 40.67629244 4.26669907 42.36838771 4.30175781 44.06030273 C4.56232523 56.97754951 4.29403805 69.79671525 -3 81 C-3.5775 81.928125 -4.155 82.85625 -4.75 83.8125 C-7.56356153 87.79837883 -10.73230841 91.38350987 -14 95 C-14.99 94.67 -15.98 94.34 -17 94 C-16.41361101 90.18409554 -14.67005308 88.14247372 -12.1875 85.25 C-2.63836774 73.56936501 -0.56271786 61.46401601 -0.48828125 46.58203125 C-0.47139209 45.23010169 -0.45323633 43.87818743 -0.43388367 42.52629089 C-0.38683608 39.00671169 -0.35673687 35.48719448 -0.33044434 31.96740723 C-0.30040731 28.36030837 -0.25395804 24.75342245 -0.20898438 21.14648438 C-0.12346797 14.09777904 -0.05589615 7.04900767 0 0 Z " fill="#518238" transform="translate(525,488)"/>
<path d="M0 0 C0.33 0 0.66 0 1 0 C1.33 30.69 1.66 61.38 2 93 C2.33 88.38 2.66 83.76 3 79 C3.33 79 3.66 79 4 79 C4 96.16 4 113.32 4 131 C3.01 131 2.02 131 1 131 C-0.01085341 127.96743977 -0.1233603 125.95086816 -0.12025452 122.77986145 C-0.12162918 121.69872574 -0.12300385 120.61759003 -0.12442017 119.50369263 C-0.12082489 118.31758392 -0.11722961 117.13147522 -0.11352539 115.90942383 C-0.11367142 114.66052872 -0.11381744 113.41163361 -0.1139679 112.12489319 C-0.11339013 108.69953667 -0.10837085 105.27424024 -0.10139394 101.84889436 C-0.09514756 98.26943784 -0.09455558 94.68998054 -0.09336853 91.11051941 C-0.09025901 84.33199544 -0.08205072 77.55348758 -0.07201904 70.77497071 C-0.06084615 63.05800062 -0.05534448 55.34102976 -0.05032361 47.6240536 C-0.0398678 31.74935973 -0.02227568 15.87468194 0 0 Z " fill="#689942" transform="translate(292,421)"/>
<path d="M0 0 C0.66 0.99 1.32 1.98 2 3 C0.99582031 3.15855469 -0.00835937 3.31710937 -1.04296875 3.48046875 C-14.88789194 5.7888071 -26.36136623 9.95028292 -38 18 C-41.6441774 20.4294516 -43.71241272 20.16179575 -48 20 C-46.50248517 15.60728983 -43.14286671 13.80840587 -39.375 11.5 C-38.73691406 11.10272705 -38.09882813 10.7054541 -37.44140625 10.29614258 C-35.63602109 9.18271448 -33.82113328 8.08742773 -32 7 C-31.27039063 6.56042969 -30.54078125 6.12085938 -29.7890625 5.66796875 C-21.33020574 1.03221974 -9.53539751 -3.29010617 0 0 Z " fill="#9FD859" transform="translate(398,420)"/>
<path d="M0 0 C1.43352212 0.00015908 2.86704998 0.00585132 4.30053711 0.01586914 C5.43041298 0.01799156 5.43041298 0.01799156 6.58311462 0.02015686 C8.99807646 0.02577163 11.41294687 0.03832656 13.82788086 0.05102539 C15.46134307 0.05603849 17.09480672 0.06060173 18.72827148 0.06469727 C22.74067671 0.07574585 26.75301326 0.09302033 30.76538086 0.11352539 C29.83956608 2.00604983 28.90892286 3.89621258 27.97631836 5.78540039 C27.45859863 6.83824219 26.94087891 7.89108398 26.4074707 8.97583008 C24.17228555 13.24680831 21.55859261 17.19114293 18.76538086 21.11352539 C17.83114441 18.10320795 17.72088175 17.24702272 18.76538086 14.11352539 C19.42538086 14.11352539 20.08538086 14.11352539 20.76538086 14.11352539 C19.70663012 10.71039801 18.75635932 8.09999308 16.76538086 5.11352539 C13.54904453 4.67067054 13.54904453 4.67067054 9.89038086 4.80102539 C8.65545898 4.80489258 7.42053711 4.80875977 6.14819336 4.81274414 C2.99201448 5.09337436 1.45176495 5.60168143 -1.23461914 7.11352539 C-2.22461914 7.11352539 -3.21461914 7.11352539 -4.23461914 7.11352539 C-4.2771627 5.11397793 -4.27542697 3.11310903 -4.23461914 1.11352539 C-3.23461914 0.11352539 -3.23461914 0.11352539 0 0 Z " fill="#B2ED5D" transform="translate(454.234619140625,456.886474609375)"/>
<path d="M0 0 C-0.33 0.99 -0.66 1.98 -1 3 C-3.65234375 4.16796875 -3.65234375 4.16796875 -6.9375 5.1875 C-8.01902344 5.53167969 -9.10054688 5.87585938 -10.21484375 6.23046875 C-13 7 -13 7 -15 7 C-15 7.66 -15 8.32 -15 9 C-16.6796875 10.2890625 -16.6796875 10.2890625 -18.875 11.625 C-19.59429687 12.07101562 -20.31359375 12.51703125 -21.0546875 12.9765625 C-23 14 -23 14 -25 14 C-25.26039063 14.57492187 -25.52078125 15.14984375 -25.7890625 15.7421875 C-27.08664797 18.16155653 -28.60474921 20.03007439 -30.375 22.125 C-33.54666289 26.11430571 -35.47294342 29.95338401 -37.17578125 34.73828125 C-37.9726545 36.92496188 -38.92072565 38.94042405 -40 41 C-42.33408123 36.98019343 -42.21288432 33.92669095 -41.06640625 29.5859375 C-36.3846067 18.23300233 -25.42320982 8.15913386 -14.6875 2.5 C-4.30672269 -1.72268908 -4.30672269 -1.72268908 0 0 Z " fill="#B3D769" transform="translate(337,379)"/>
<path d="M0 0 C0.99 0 1.98 0 3 0 C3.14695312 0.66644531 3.29390625 1.33289063 3.4453125 2.01953125 C6.94657558 16.4069054 14.41850516 28.0828066 27.0625 36.0625 C28.47208984 36.88427734 28.47208984 36.88427734 29.91015625 37.72265625 C30.59980469 38.14417969 31.28945313 38.56570313 32 39 C32 39.33 32 39.66 32 40 C26.60933751 40.68608432 23.8191541 40.32011934 19.4375 37 C15.17517334 33.36124953 11.47993897 29.38472311 8 25 C7.525625 24.4121875 7.05125 23.824375 6.5625 23.21875 C3.38264095 19.05464887 1.70498158 14.9444466 0 10 C-0.33 9.67 -0.66 9.34 -1 9 C-0.91062197 7.47480724 -0.75462854 5.95318071 -0.5625 4.4375 C-0.46066406 3.61121094 -0.35882813 2.78492188 -0.25390625 1.93359375 C-0.17011719 1.29550781 -0.08632813 0.65742187 0 0 Z " fill="#538638" transform="translate(294,549)"/>
<path d="M0 0 C4.89274496 -0.19822574 9.78314169 -0.34312625 14.67895508 -0.43945312 C16.3427807 -0.47961164 18.00632522 -0.53415464 19.66918945 -0.60351562 C33.48209012 -1.16511637 33.48209012 -1.16511637 37.22900391 1.7109375 C39.31525 4.92530185 40 7.16482812 40 11 C38.68 10.67 37.36 10.34 36 10 C36 9.01 36 8.02 36 7 C35.01 7.33 34.02 7.66 33 8 C32.505 5.525 32.505 5.525 32 3 C29.525 2.505 29.525 2.505 27 2 C27 2.66 27 3.32 27 4 C23.37 4 19.74 4 16 4 C16 3.34 16 2.68 16 2 C14.68 1.67 13.36 1.34 12 1 C12 1.66 12 2.32 12 3 C10.02 3.99 10.02 3.99 8 5 C8 7.64 8 10.28 8 13 C4.6146459 8.91422781 1.68861844 5.06585532 0 0 Z " fill="#C5F377" transform="translate(336,457)"/>
<path d="M0 0 C4.03520597 1.58962659 8.01811282 3.28232318 12 5 C12 5.66 12 6.32 12 7 C13.0209375 7.309375 13.0209375 7.309375 14.0625 7.625 C17.94147829 9.44069196 20.96120562 11.99623495 24 15 C24 15.33 24 15.66 24 16 C17.8569122 16.54848998 14.61542058 15.67398815 9.46875 12.2890625 C8.74171875 11.65097656 8.74171875 11.65097656 8 11 C8 10.34 8 9.68 8 9 C6.989375 8.731875 5.97875 8.46375 4.9375 8.1875 C1.12672558 7.1064844 -2.38875208 5.62137662 -6 4 C-5.38125 3.71125 -4.7625 3.4225 -4.125 3.125 C-1.86674235 2.06279958 -1.86674235 2.06279958 0 0 Z " fill="#3B602A" transform="translate(448,424)"/>
<path d="M0 0 C0.33 0 0.66 0 1 0 C1.00423194 0.61438368 1.00846388 1.22876736 1.01282406 1.86176872 C1.11634954 16.84495476 1.22501892 31.82809404 1.33933926 46.8112011 C1.39450211 54.05706111 1.44795523 61.30292605 1.49731445 68.54882812 C1.54036489 74.86795666 1.58669351 81.18705143 1.63687855 87.50612748 C1.66331267 90.84874214 1.68767036 94.19133984 1.70907402 97.53399277 C1.73330799 101.27515018 1.76333541 105.01622052 1.79467773 108.75732422 C1.8004332 109.85281082 1.80618866 110.94829742 1.81211853 112.07698059 C1.86651191 117.81069802 2.16762695 123.36804227 2.98378086 129.04759407 C2.98913318 129.69188803 2.99448549 130.33618198 3 131 C2.01 131.99 2.01 131.99 1 133 C-0.73819135 125.09269377 -1.25662458 117.63229605 -1.13525391 109.55200195 C-1.12579239 108.36046005 -1.11633087 107.16891815 -1.10658264 105.94126892 C-1.07890398 102.71047848 -1.04202532 99.47995884 -1.00085878 96.24931741 C-0.95990472 92.85949441 -0.93098497 89.46956792 -0.90072632 86.07963562 C-0.8417766 79.67668991 -0.77218309 73.27390705 -0.69865549 66.87111396 C-0.61539377 59.57482523 -0.54416505 52.27843404 -0.47388959 44.98201048 C-0.32920686 29.98785618 -0.16959975 14.99389474 0 0 Z " fill="#1D3316" transform="translate(291,428)"/>
<path d="M0 0 C0.33 0 0.66 0 1 0 C1.33 17.16 1.66 34.32 2 52 C2.33 42.76 2.66 33.52 3 24 C3.33 24 3.66 24 4 24 C4.02470935 29.21443333 4.04286444 34.42883261 4.05493164 39.64331055 C4.059962 41.41740513 4.06678699 43.19149556 4.07543945 44.96557617 C4.08756174 47.51482161 4.09324126 50.06401226 4.09765625 52.61328125 C4.10281754 53.40712723 4.10797882 54.20097321 4.11329651 55.01887512 C4.11362877 58.27656286 4.03772826 60.88681521 3 64 C2.01 64 1.02 64 0 64 C0 42.88 0 21.76 0 0 Z " fill="#5F8C45" transform="translate(525,488)"/>
<path d="M0 0 C0.33 0 0.66 0 1 0 C1 17.16 1 34.32 1 52 C0.01 52 -0.98 52 -2 52 C-2.02468084 46.90967159 -2.04285082 41.81937785 -2.05493164 36.72900391 C-2.05996682 34.99657586 -2.06679532 33.26415208 -2.07543945 31.53173828 C-2.08754065 29.04458567 -2.09323638 26.55748913 -2.09765625 24.0703125 C-2.10281754 23.29317902 -2.10797882 22.51604553 -2.11329651 21.71536255 C-2.11387171 16.22774341 -2.11387171 16.22774341 -1 14 C-0.76970044 11.62876754 -0.58880058 9.25258057 -0.4375 6.875 C-0.35371094 5.59367187 -0.26992188 4.31234375 -0.18359375 2.9921875 C-0.09271484 1.51105469 -0.09271484 1.51105469 0 0 Z " fill="#6DAC46" transform="translate(295,500)"/>
<path d="M0 0 C0.33 0 0.66 0 1 0 C1.81742961 3.57335394 2.1221027 6.86214651 2.11352539 10.5246582 C2.11344986 11.60540115 2.11337433 12.6861441 2.11329651 13.79963684 C2.10813522 14.9550145 2.10297394 16.11039215 2.09765625 17.30078125 C2.0962413 18.49229294 2.09482635 19.68380463 2.09336853 20.91142273 C2.08777728 24.71180751 2.07522632 28.51213307 2.0625 32.3125 C2.05748387 34.89127519 2.05292116 37.4700513 2.04882812 40.04882812 C2.03781071 46.36590557 2.02108122 52.68294855 2 59 C1.34 59 0.68 59 0 59 C-0.15361109 51.45512064 -0.3017928 43.91015145 -0.4429636 36.36502934 C-0.50868092 32.86186429 -0.5762974 29.35875701 -0.64819336 25.85571289 C-0.7306875 21.83228789 -0.80503044 17.80874879 -0.87890625 13.78515625 C-0.90594131 12.52163834 -0.93297638 11.25812042 -0.96083069 9.95631409 C-0.98092697 8.795186 -1.00102325 7.63405792 -1.02172852 6.43774414 C-1.04171402 5.40960098 -1.06169952 4.38145782 -1.08229065 3.32215881 C-1 1 -1 1 0 0 Z " fill="#A9ED5F" transform="translate(526,421)"/>
<path d="M0 0 C0.33 0 0.66 0 1 0 C1.02332213 9.01545596 1.04101525 18.03090129 1.05181217 27.046381 C1.05699799 31.23405662 1.06401603 35.42171138 1.07543945 39.609375 C1.08642306 43.66185075 1.09230909 47.71430661 1.09487724 51.76679611 C1.09670395 53.30149015 1.10026991 54.83618328 1.10573006 56.37086868 C1.17734408 77.36264144 1.17734408 77.36264144 0 85 C-0.99 85.99 -0.99 85.99 -2 87 C-2.02940458 83.83335334 -2.04693315 80.66674253 -2.0625 77.5 C-2.07087891 76.613125 -2.07925781 75.72625 -2.08789062 74.8125 C-2.09272461 73.49765625 -2.09272461 73.49765625 -2.09765625 72.15625 C-2.10289307 71.36025391 -2.10812988 70.56425781 -2.11352539 69.74414062 C-2 67 -2 67 -1.51367188 63.53320312 C-0.71897399 57.48602195 -0.76506778 51.40270249 -0.68359375 45.3125 C-0.66281265 44.01425293 -0.64203156 42.71600586 -0.62062073 41.37841797 C-0.56583066 37.95250367 -0.51623439 34.52653379 -0.46777344 31.1005249 C-0.41724076 27.59431094 -0.36172174 24.08817618 -0.30664062 20.58203125 C-0.19958713 13.721423 -0.0980284 6.86074298 0 0 Z " fill="#8FCC59" transform="translate(295,429)"/>
<path d="M0 0 C6.46712188 1.16194152 12.09622349 3.1248748 18 6 C13.59170987 8.93886009 10.07924504 7.8757319 5 7 C3.24610184 6.51385059 1.49623245 6.01300316 -0.25 5.5 C-9.56562242 2.98723343 -19.40898589 3.2317103 -29 3 C-29 2.67 -29 2.34 -29 2 C-19.43 2 -9.86 2 0 2 C0 1.34 0 0.68 0 0 Z " fill="#9ECC5D" transform="translate(431,419)"/>
<path d="M0 0 C0.33 0 0.66 0 1 0 C1 17.49 1 34.98 1 53 C1.66 53 2.32 53 3 53 C3 60.92 3 68.84 3 77 C2.34 77 1.68 77 1 77 C-0.36623094 61.90522754 -0.11734863 46.76395505 -0.06866455 31.62408447 C-0.0582923 28.05017697 -0.05383764 24.47626208 -0.04882812 20.90234375 C-0.03821838 13.9348781 -0.0212328 6.96744119 0 0 Z " fill="#86BF55" transform="translate(525,427)"/>
<path d="M0 0 C0.69738281 0.24105469 1.39476562 0.48210937 2.11328125 0.73046875 C2.44328125 1.72046875 2.77328125 2.71046875 3.11328125 3.73046875 C2.42621094 4.14039063 1.73914063 4.5503125 1.03125 4.97265625 C-0.32033203 5.78089844 -0.32033203 5.78089844 -1.69921875 6.60546875 C-3.03919922 7.40597656 -3.03919922 7.40597656 -4.40625 8.22265625 C-6.25966599 9.34929967 -8.08201792 10.52733486 -9.88671875 11.73046875 C-12.21871263 11.80951939 -14.55504497 11.81845644 -16.88671875 11.73046875 C-15.35503398 7.56766904 -12.68119511 5.85078758 -9.07421875 3.41796875 C-8.03652344 2.69996094 -6.99882812 1.98195313 -5.9296875 1.2421875 C-2.88671875 -0.26953125 -2.88671875 -0.26953125 0 0 Z " fill="#365A28" transform="translate(366.88671875,428.26953125)"/>
<path d="M0 0 C1.65 0.33 3.3 0.66 5 1 C3.8774654 3.27208206 2.75208479 5.54267645 1.625 7.8125 C1.30789063 8.45509766 0.99078125 9.09769531 0.6640625 9.75976562 C-0.76458611 12.63194461 -2.21785473 15.3267821 -4 18 C-4.66 18 -5.32 18 -6 18 C-6.33 16.68 -6.66 15.36 -7 14 C-7.66 14 -8.32 14 -9 14 C-9.66 12.02 -10.32 10.04 -11 8 C-9.35 8 -7.7 8 -6 8 C-5.67 9.65 -5.34 11.3 -5 13 C-2.94074319 9.91111478 -2.7609626 9.29064073 -2.875 5.8125 C-2.936875 3.9253125 -2.936875 3.9253125 -3 2 C-2.01 2 -1.02 2 0 2 C0 1.34 0 0.68 0 0 Z " fill="#7CBE4C" transform="translate(443,520)"/>
<path d="M0 0 C0.99 0.33 1.98 0.66 3 1 C2.54053342 3.87166615 1.64929219 5.58451302 0.125 8.125 C-2.46888456 12.47022998 -3.70857761 17.13759903 -5 22 C-8.45316241 15.55409684 -8.45316241 15.55409684 -7.36328125 11.81640625 C-5.31464512 7.42211983 -3.28443005 3.63633327 0 0 Z " fill="#ACD569" transform="translate(303,398)"/>
<path d="M0 0 C0.66 0.33 1.32 0.66 2 1 C0.38352204 3.817481 -1.24458448 6.62806499 -2.875 9.4375 C-3.33519531 10.23994141 -3.79539062 11.04238281 -4.26953125 11.86914062 C-4.71425781 12.63291016 -5.15898437 13.39667969 -5.6171875 14.18359375 C-6.02565918 14.89056396 -6.43413086 15.59753418 -6.85498047 16.32592773 C-8 18 -8 18 -10 19 C-10 17.02 -10 15.04 -10 13 C-9.01 12.67 -8.02 12.34 -7 12 C-7.23396484 11.04287109 -7.23396484 11.04287109 -7.47265625 10.06640625 C-7.66730469 9.24011719 -7.86195313 8.41382813 -8.0625 7.5625 C-8.25972656 6.73878906 -8.45695312 5.91507812 -8.66015625 5.06640625 C-8.82837891 4.04353516 -8.82837891 4.04353516 -9 3 C-8 2 -8 2 -6.15234375 1.90234375 C-4.1015625 1.93489583 -2.05078125 1.96744792 0 2 C0 1.34 0 0.68 0 0 Z " fill="#AEE760" transform="translate(482,459)"/>
<path d="M0 0 C1.98 0.495 1.98 0.495 4 1 C4 2.65 4 4.3 4 6 C5.32 6.33 6.64 6.66 8 7 C8.33 9.31 8.66 11.62 9 14 C10.98 14 12.96 14 15 14 C15 14.99 15 15.98 15 17 C14.01 17.66 13.02 18.32 12 19 C11.67 19.66 11.34 20.32 11 21 C7.75316474 17.1521704 5.17544209 13.16526157 2.6875 8.8125 C2.31560547 8.18408203 1.94371094 7.55566406 1.56054688 6.90820312 C0.64151204 5.30802143 -0.18737069 3.65675589 -1 2 C-0.67 1.34 -0.34 0.68 0 0 Z " fill="#9BDC5B" transform="translate(352,482)"/>
<path d="M0 0 C0.33 0 0.66 0 1 0 C1.01030746 0.59166962 1.02061493 1.18333923 1.03123474 1.79293823 C1.14001254 7.99063595 1.25454556 14.18820894 1.37231445 20.38574219 C1.41543651 22.69398369 1.45712598 25.00225244 1.49731445 27.31054688 C1.55557191 30.64201037 1.61910203 33.97333954 1.68359375 37.3046875 C1.70866249 38.834991 1.70866249 38.834991 1.73423767 40.39620972 C1.84839687 46.00687069 2.2006962 51.46888823 2.98768616 57.02835083 C2.99174973 57.67899506 2.99581329 58.32963928 3 59 C2.34 59.66 1.68 60.32 1 61 C-0.72083123 53.21109108 -1.22366215 45.94636616 -0.9765625 37.98828125 C-0.95153656 36.89404343 -0.92651062 35.7998056 -0.90072632 34.67240906 C-0.81934606 31.21875141 -0.72244416 27.76573788 -0.625 24.3125 C-0.56667652 21.95380133 -0.50937524 19.59507715 -0.453125 17.23632812 C-0.31389091 11.49053773 -0.16195283 5.74519257 0 0 Z " fill="#193115" transform="translate(291,500)"/>
<path d="M0 0 C11.22 0 22.44 0 34 0 C33.67 0.66 33.34 1.32 33 2 C32.34 2 31.68 2 31 2 C31 2.66 31 3.32 31 4 C29.72125 4.144375 28.4425 4.28875 27.125 4.4375 C24.74307106 4.70642746 23.15547309 4.92226346 21 6 C21.33 4.68 21.66 3.36 22 2 C14.74 1.67 7.48 1.34 0 1 C0 0.67 0 0.34 0 0 Z " fill="#BFF26F" transform="translate(451,457)"/>
<path d="M0 0 C3.66747938 1.83373969 4.74129801 6.26585077 6 10 C6.29454579 12.45901107 6.21136649 14.51644372 6 17 C5.01 17 4.02 17 3 17 C2.16260219 14.8765984 1.33019717 12.7512272 0.5 10.625 C-0.19609375 8.84996094 -0.19609375 8.84996094 -0.90625 7.0390625 C-2 4 -2 4 -2 2 C-1.34 2 -0.68 2 0 2 C0 1.34 0 0.68 0 0 Z " fill="#AFDD6E" transform="translate(521,404)"/>
<path d="M0 0 C2.44457392 2.25044599 4.09902934 4.55801293 5.75 7.4375 C6.19859375 8.19933594 6.6471875 8.96117187 7.109375 9.74609375 C8.13203743 12.33414736 7.95772637 13.43633001 7 16 C6.34 15.01 5.68 14.02 5 13 C3.35 13.33 1.7 13.66 0 14 C-0.125 7.25 -0.125 7.25 1 5 C0.34 4.67 -0.32 4.34 -1 4 C-0.67 2.68 -0.34 1.36 0 0 Z " fill="#67AA3D" transform="translate(417,538)"/>
<path d="M0 0 C1.75 1.5625 1.75 1.5625 3 3 C-7.37357631 7.77676538 -7.37357631 7.77676538 -13 6 C-12 3 -12 3 -10.29296875 1.796875 C-9.59816406 1.45140625 -8.90335937 1.1059375 -8.1875 0.75 C-7.50042969 0.39421875 -6.81335938 0.0384375 -6.10546875 -0.328125 C-3.56425747 -1.13904957 -2.45176468 -1.01452332 0 0 Z " fill="#71A845" transform="translate(378,424)"/>
<path d="M0 0 C0.99 0.33 1.98 0.66 3 1 C3.33 1.99 3.66 2.98 4 4 C0 6.66666667 -4 9.33333333 -8 12 C-8 11.34 -8 10.68 -8 10 C-8.66 10 -9.32 10 -10 10 C-10 9.34 -10 8.68 -10 8 C-10.66 7.67 -11.32 7.34 -12 7 C-9.10765685 6.17361624 -7.11257569 6 -4 6 C-3.566875 5.071875 -3.566875 5.071875 -3.125 4.125 C-2 2 -2 2 0 0 Z " fill="#162512" transform="translate(318,379)"/>
<path d="M0 0 C3.93673644 1.31224548 6.22719294 2.91910327 9 6 C8.34 6 7.68 6 7 6 C7 6.66 7 7.32 7 8 C7.66 8.33 8.32 8.66 9 9 C3.45949887 8.43174347 -1.03715966 6.37113483 -6 4 C-5.38125 3.71125 -4.7625 3.4225 -4.125 3.125 C-1.86674235 2.06279958 -1.86674235 2.06279958 0 0 Z " fill="#5F973C" transform="translate(448,424)"/>
<path d="M0 0 C0.33 0 0.66 0 1 0 C1.144375 0.94875 1.28875 1.8975 1.4375 2.875 C1.82935399 5.8934494 1.82935399 5.8934494 3 8 C0.60490662 10.89932357 -1.31245243 11.50168276 -5 12 C-5.12375 12.639375 -5.2475 13.27875 -5.375 13.9375 C-5.58125 14.618125 -5.7875 15.29875 -6 16 C-6.66 16.33 -7.32 16.66 -8 17 C-7.57045318 11.27270904 -5.15218029 7.60552198 -2 3 C-1.34 2.01 -0.68 1.02 0 0 Z " fill="#8ACF4D" transform="translate(429,493)"/>
<path d="M0 0 C1.1446875 0.495 1.1446875 0.495 2.3125 1 C4.99069135 2.17436686 4.99069135 2.17436686 8 2 C7.67 3.32 7.34 4.64 7 6 C7.66 6 8.32 6 9 6 C9.22786458 8.01822917 9.45572917 10.03645833 9.68359375 12.0546875 C9.91292961 14.07404316 9.91292961 14.07404316 11 16 C6.57320993 14.52440331 6.08567304 12.09942632 4 8 C4 7.34 4 6.68 4 6 C3.34 6 2.68 6 2 6 C1.34 4.02 0.68 2.04 0 0 Z " fill="#6BAE45" transform="translate(383,538)"/>
<path d="M0 0 C0.598125 0.78375 1.19625 1.5675 1.8125 2.375 C3.91085249 5.14574323 3.91085249 5.14574323 7 7 C7.1875 10.125 7.1875 10.125 7 13 C6.01 13.33 5.02 13.66 4 14 C0.535 8.06 0.535 8.06 -3 2 C-2.01 1.34 -1.02 0.68 0 0 Z " fill="#79BF4A" transform="translate(377,522)"/>
<path d="M0 0 C0.33 0 0.66 0 1 0 C1.33 1.98 1.66 3.96 2 6 C1.34 6 0.68 6 0 6 C-0.2475 6.78375 -0.495 7.5675 -0.75 8.375 C-2 11 -2 11 -4.0625 11.9375 C-4.701875 12.288125 -5.34125 12.63875 -6 13 C-6.165 13.99 -6.33 14.98 -6.5 16 C-6.665 16.99 -6.83 17.98 -7 19 C-9.0625 20.375 -9.0625 20.375 -11 21 C-9.3003494 16.26525903 -6.86340973 12.03832889 -4.375 7.6875 C-3.95476562 6.94693359 -3.53453125 6.20636719 -3.1015625 5.44335938 C-2.07051505 3.62730989 -1.03563954 1.81343467 0 0 Z " fill="#162810" transform="translate(461,498)"/>
<path d="M0 0 C0 0.66 0 1.32 0 2 C1.485 2.495 1.485 2.495 3 3 C2.13761719 2.93941406 1.27523437 2.87882812 0.38671875 2.81640625 C-10.07026408 2.09866192 -20.53192858 1.52960103 -31 1 C-31 0.67 -31 0.34 -31 0 C-26.58369908 -0.19688523 -22.16695334 -0.38088923 -17.75 -0.5625 C-16.49574219 -0.61857422 -15.24148438 -0.67464844 -13.94921875 -0.73242188 C-12.74394531 -0.78076172 -11.53867187 -0.82910156 -10.296875 -0.87890625 C-8.63156738 -0.94960327 -8.63156738 -0.94960327 -6.93261719 -1.02172852 C-4.38493859 -1.00285211 -2.41237207 -0.76220692 0 0 Z " fill="#B3EA5E" transform="translate(431,419)"/>
<path d="M0 0 C0.66 0.33 1.32 0.66 2 1 C0.68 1.99 -0.64 2.98 -2 4 C-1.67 5.32 -1.34 6.64 -1 8 C-4.1964086 9.06546953 -6.65747276 9.07427838 -10 9 C-10.33 8.01 -10.66 7.02 -11 6 C-9.68 5.67 -8.36 5.34 -7 5 C-7 4.34 -7 3.68 -7 3 C-4.69631264 1.93347808 -2.35981813 0.93578995 0 0 Z " fill="#212B18" transform="translate(329,383)"/>
<path d="M0 0 C0.33 0.99 0.66 1.98 1 3 C-4.42465753 6.08219178 -4.42465753 6.08219178 -7.1875 5.6875 C-7.785625 5.460625 -8.38375 5.23375 -9 5 C-9.99 5 -10.98 5 -12 5 C-5.79166667 -1.37171053 -5.79166667 -1.37171053 0 0 Z " fill="#4B7835" transform="translate(369,429)"/>
<path d="M0 0 C1.98 0 3.96 0 6 0 C6.66 1.98 7.32 3.96 8 6 C6.68 6.99 5.36 7.98 4 9 C0 2.25 0 2.25 0 0 Z " fill="#152611" transform="translate(520,400)"/>
<path d="M0 0 C2.62002725 2.37050084 4.35819909 4.87276017 6 8 C6 8.99 6 9.98 6 11 C4.68 10.67 3.36 10.34 2 10 C2 9.01 2 8.02 2 7 C1.01 7.33 0.02 7.66 -1 8 C-1.625 5.6875 -1.625 5.6875 -2 3 C-1.34 2.01 -0.68 1.02 0 0 Z " fill="#AADB61" transform="translate(370,457)"/>
<path d="M0 0 C-0.33 0.99 -0.66 1.98 -1 3 C-3.50390625 3.94921875 -3.50390625 3.94921875 -6.5625 4.6875 C-7.57441406 4.93886719 -8.58632813 5.19023437 -9.62890625 5.44921875 C-10.41136719 5.63097656 -11.19382812 5.81273437 -12 6 C-12 5.34 -12 4.68 -12 4 C-11.01 4 -10.02 4 -9 4 C-13 4 -13 4 -15 3 C-13.72942818 2.52014033 -12.45853152 2.0411407 -11.1875 1.5625 C-10.47980469 1.29566406 -9.77210938 1.02882813 -9.04296875 0.75390625 C-5.47999374 -0.56092009 -3.64317272 -1.13063981 0 0 Z " fill="#A7C563" transform="translate(337,379)"/>
<path d="M0 0 C0.66 0 1.32 0 2 0 C3.80723321 2.40964428 5 4.06275378 5 7.125 C3.58381342 9.78034983 1.62782417 10.65239786 -1 12 C-1.02687279 10.18757948 -1.04633715 8.37504767 -1.0625 6.5625 C-1.07410156 5.55316406 -1.08570313 4.54382813 -1.09765625 3.50390625 C-1 1 -1 1 0 0 Z " fill="#9CE051" transform="translate(385,484)"/>
<path d="M0 0 C6.18943397 -0.33157682 10.33966222 0.41809154 16 3 C16.33 3.66 16.66 4.32 17 5 C14.72869344 4.69095829 12.45796695 4.37765093 10.1875 4.0625 C8.92292969 3.88847656 7.65835937 3.71445312 6.35546875 3.53515625 C3 3 3 3 0 2 C0 1.34 0 0.68 0 0 Z " fill="#C2E173" transform="translate(480,378)"/>
<path d="M0 0 C5.445 1.485 5.445 1.485 11 3 C11 3.33 11 3.66 11 4 C6.55335763 5.79983144 3.64984257 6.31408594 -1 5 C-3.375 3.4375 -3.375 3.4375 -5 2 C-3.35 1.67 -1.7 1.34 0 1 C0 0.67 0 0.34 0 0 Z " fill="#466C2F" transform="translate(325,587)"/>
<path d="M0 0 C4.77727784 5.54780652 4.77727784 5.54780652 5 9 C4.0625 11.25 4.0625 11.25 3 13 C2.87625 12.360625 2.7525 11.72125 2.625 11.0625 C2.41875 10.381875 2.2125 9.70125 2 9 C1.34 8.67 0.68 8.34 0 8 C-0.66 8.66 -1.32 9.32 -2 10 C-2.625 8.125 -2.625 8.125 -3 6 C-2.34 5.34 -1.68 4.68 -1 4 C-0.3574765 1.93125966 -0.3574765 1.93125966 0 0 Z " fill="#73B541" transform="translate(406,518)"/>
<path d="M0 0 C1.65 0.33 3.3 0.66 5 1 C3.75 4.4375 3.75 4.4375 2 8 C-0.1875 8.9375 -0.1875 8.9375 -2 9 C-2.33 6.69 -2.66 4.38 -3 2 C-2.01 2 -1.02 2 0 2 C0 1.34 0 0.68 0 0 Z " fill="#7CC245" transform="translate(443,520)"/>
<path d="M0 0 C5.28 0 10.56 0 16 0 C16 0.33 16 0.66 16 1 C14.35 1 12.7 1 11 1 C11 1.66 11 2.32 11 3 C7.37 3 3.74 3 0 3 C0 2.01 0 1.02 0 0 Z " fill="#B3EB5D" transform="translate(352,458)"/>
<path d="M0 0 C-3.37507696 2.2500513 -4.08124185 2.19071522 -7.9375 1.75 C-8.79214844 1.66234375 -9.64679688 1.5746875 -10.52734375 1.484375 C-12.99727598 1.00053362 -14.81983722 0.23424529 -17 -1 C-15.10590022 -1.22354607 -13.2095652 -1.42819951 -11.3125 -1.625 C-9.72888672 -1.79902344 -9.72888672 -1.79902344 -8.11328125 -1.9765625 C-4.86283654 -2.0010326 -2.89769204 -1.40852563 0 0 Z " fill="#85C150" transform="translate(449,425)"/>
<path d="M0 0 C3.0916909 2.52956528 3.90931332 5.22454612 5 9 C2.36 9 -0.28 9 -3 9 C-2 6 -2 6 0 4 C0 2.68 0 1.36 0 0 Z " fill="#6EB043" transform="translate(411,527)"/>
<path d="M0 0 C2.35049617 3.52574425 2.32551176 4.84972507 2 9 C1 12.375 1 12.375 0 15 C-2.75510204 9.85714286 -2.75510204 9.85714286 -3 7 C-2.17449878 4.5499547 -1.12471086 2.33939859 0 0 Z " fill="#96C258" transform="translate(298,405)"/>
<path d="M0 0 C3.16115776 1.36983503 3.9927092 1.9890638 6 5 C6 6.32 6 7.64 6 9 C5.01 9 4.02 9 3 9 C0.75 6.1875 0.75 6.1875 -1 3 C-0.67 2.01 -0.34 1.02 0 0 Z " fill="#B9E373" transform="translate(515,397)"/>
<path d="M0 0 C0 0.66 0 1.32 0 2 C-5.68849748 3.49697302 -10.41809068 2.3348044 -16 1 C-16 0.67 -16 0.34 -16 0 C-10.49983036 -1.30267176 -5.52967941 -0.71033431 0 0 Z " fill="#456F30" transform="translate(496,591)"/>
<path d="M0 0 C0.99 0.33 1.98 0.66 3 1 C3.5625 2.9375 3.5625 2.9375 4 5 C4.66 5.66 5.32 6.32 6 7 C5.01 8.485 5.01 8.485 4 10 C3.34 10 2.68 10 2 10 C-1.125 3.375 -1.125 3.375 0 0 Z " fill="#7EC64A" transform="translate(427,514)"/>
<path d="M0 0 C3 1 3 1 3.94921875 2.84765625 C4.19285156 3.57855469 4.43648438 4.30945313 4.6875 5.0625 C4.93886719 5.79597656 5.19023437 6.52945312 5.44921875 7.28515625 C5.63097656 7.85105469 5.81273437 8.41695313 6 9 C3.03824877 8.38722388 1.61941217 7.74627478 -1 6 C-0.67 4.02 -0.34 2.04 0 0 Z " fill="#A8E45B" transform="translate(377,471)"/>
<path d="M0 0 C0.33 0.66 0.66 1.32 1 2 C0.01 2 -0.98 2 -2 2 C-2.33 2.99 -2.66 3.98 -3 5 C-3.66 5 -4.32 5 -5 5 C-5 5.66 -5 6.32 -5 7 C-6.65 6.67 -8.3 6.34 -10 6 C-9.67 5.01 -9.34 4.02 -9 3 C-6.93359375 2.05078125 -6.93359375 2.05078125 -4.4375 1.3125 C-3.61121094 1.06113281 -2.78492188 0.80976563 -1.93359375 0.55078125 C-1.29550781 0.36902344 -0.65742188 0.18726563 0 0 Z " fill="#BDDF74" transform="translate(327,381)"/>
<path d="M0 0 C0.33 1.32 0.66 2.64 1 4 C0.34 4 -0.32 4 -1 4 C-1 4.66 -1 5.32 -1 6 C-0.34 6 0.32 6 1 6 C0.40072174 9.35595828 -0.84622436 11.37801226 -3 14 C-3.32374517 8.49633208 -3.53286034 4.56327794 0 0 Z " fill="#91D456" transform="translate(433,486)"/>
<path d="M0 0 C0.33 0 0.66 0 1 0 C1.67012098 6.19861907 -0.75052827 11.35623611 -3 17 C-3.66 16.34 -4.32 15.68 -5 15 C-5 13.68 -5 12.36 -5 11 C-4.34 10.67 -3.68 10.34 -3 10 C-2.08968728 7.65613191 -2.08968728 7.65613191 -1.375 4.9375 C-1.11460937 4.01839844 -0.85421875 3.09929687 -0.5859375 2.15234375 C-0.39257812 1.44207031 -0.19921875 0.73179687 0 0 Z " fill="#172812" transform="translate(296,404)"/>
<path d="M0 0 C0.33 0 0.66 0 1 0 C1 3.96 1 7.92 1 12 C0.01 12 -0.98 12 -2 12 C-1.85962479 10.18706911 -1.71255111 8.3746557 -1.5625 6.5625 C-1.48128906 5.55316406 -1.40007813 4.54382813 -1.31640625 3.50390625 C-1 1 -1 1 0 0 Z " fill="#609F40" transform="translate(527,540)"/>
<path d="M0 0 C2 1 2 1 3.125 4.0625 C3.41375 5.031875 3.7025 6.00125 4 7 C3.67 7 3.34 7 3 7 C2.67 8.65 2.34 10.3 2 12 C0.26337666 8.77484237 -0.8905928 5.48670834 -2 2 C-1.34 2 -0.68 2 0 2 C0 1.34 0 0.68 0 0 Z " fill="#A2CF62" transform="translate(521,404)"/>
<path d="M0 0 C2.20319677 4.40639354 3.10924981 6.97450871 3 12 C2.01 11.67 1.02 11.34 0 11 C-1.05404945 7.01803543 -0.84098656 4.01804691 0 0 Z " fill="#609342" transform="translate(297,554)"/>
<path d="M0 0 C1.32 0 2.64 0 4 0 C4 0.66 4 1.32 4 2 C4.66 2 5.32 2 6 2 C6 4.31 6 6.62 6 9 C2.91910327 6.22719294 1.31224548 3.93673644 0 0 Z " fill="#ADEA69" transform="translate(345,472)"/>
<path d="M0 0 C0.66 0.33 1.32 0.66 2 1 C2 2.65 2 4.3 2 6 C2.66 6 3.32 6 4 6 C3.67 6.99 3.34 7.98 3 9 C1.68 8.67 0.36 8.34 -1 8 C-1.04241723 5.66705225 -1.04092937 3.33297433 -1 1 C-0.67 0.67 -0.34 0.34 0 0 Z " fill="#ABEB61" transform="translate(443,471)"/>
<path d="M0 0 C0.99 0.33 1.98 0.66 3 1 C2.44271087 4.34373475 1.64826111 7.03312999 0 10 C-2 7 -2 7 -1.6875 4.4375 C-1 2 -1 2 0 0 Z " fill="#588E3D" transform="translate(521,560)"/>
<path d="M0 0 C0.66 1.32 1.32 2.64 2 4 C1.34 4 0.68 4 0 4 C0.3403125 4.8971875 0.3403125 4.8971875 0.6875 5.8125 C0.790625 6.534375 0.89375 7.25625 1 8 C-0.4375 9.625 -0.4375 9.625 -2 11 C-2 11.66 -2 12.32 -2 13 C-2.99 13.33 -3.98 13.66 -5 14 C-3.46527032 9.27775484 -1.76054874 4.64144669 0 0 Z " fill="#192E15" transform="translate(526,557)"/>
<path d="M0 0 C0.66 0.99 1.32 1.98 2 3 C1.67 3.99 1.34 4.98 1 6 C0.01 6.33 -0.98 6.66 -2 7 C-2.3721042 8.32303717 -2.70630173 9.65737935 -3 11 C-3.99 11.495 -3.99 11.495 -5 12 C-4.52389341 7.00088076 -2.96837781 4.02167317 0 0 Z " fill="#78B249" transform="translate(426,498)"/>
<path d="M0 0 C1.27351308 2.54702616 0.80191925 3.4282945 0.0625 6.125 C-0.13214844 6.84945313 -0.32679688 7.57390625 -0.52734375 8.3203125 C-0.76130859 9.15175781 -0.76130859 9.15175781 -1 10 C-1.99 10 -2.98 10 -4 10 C-4.33 8.35 -4.66 6.7 -5 5 C-4.360625 4.731875 -3.72125 4.46375 -3.0625 4.1875 C-0.66868314 3.11332248 -0.66868314 3.11332248 0 0 Z " fill="#8FD44B" transform="translate(461,492)"/>
<path d="M0 0 C0.66 0 1.32 0 2 0 C1.67 2.64 1.34 5.28 1 8 C-0.66666667 8 -2.33333333 8 -4 8 C-2.87548273 5.0280615 -1.77706209 2.66559313 0 0 Z " fill="#9CCF5D" transform="translate(446,464)"/>
<path d="M0 0 C1.32 0 2.64 0 4 0 C2.58221166 2.83557667 0.76968562 5.372285 -1 8 C-1.66 8.99 -2.32 9.98 -3 11 C-3.75 9.4375 -3.75 9.4375 -4 7 C-2.86915563 4.49713591 -1.47860484 2.32992278 0 0 Z " fill="#192410" transform="translate(483,460)"/>
<path d="M0 0 C1.27875 0.103125 2.5575 0.20625 3.875 0.3125 C4.95394531 0.39951172 4.95394531 0.39951172 6.0546875 0.48828125 C8 1 8 1 10 4 C7.36 4 4.72 4 2 4 C1.34 2.68 0.68 1.36 0 0 Z " fill="#365E28" transform="translate(462,436)"/>
<path d="M0 0 C1.98 0.495 1.98 0.495 4 1 C4 1.66 4 2.32 4 3 C4.66 3 5.32 3 6 3 C6 3.66 6 4.32 6 5 C4.02 5.33 2.04 5.66 0 6 C-1.125 2.25 -1.125 2.25 0 0 Z " fill="#4D7E32" transform="translate(456,428)"/>
<path d="M0 0 C0 0.99 0 1.98 0 3 C0.33 3.99 0.66 4.98 1 6 C-0.32 6.99 -1.64 7.98 -3 9 C-3.66 7.68 -4.32 6.36 -5 5 C-3.35 3.35 -1.7 1.7 0 0 Z " fill="#ACCE68" transform="translate(309,391)"/>
<path d="M0 0 C1.5 1.375 1.5 1.375 3 3 C3 3.66 3 4.32 3 5 C-0.3 4.67 -3.6 4.34 -7 4 C-7 3.34 -7 2.68 -7 2 C-4.69 2 -2.38 2 0 2 C0 1.34 0 0.68 0 0 Z " fill="#5A9738" transform="translate(425,552)"/>
<path d="M0 0 C0.8971875 0.5259375 0.8971875 0.5259375 1.8125 1.0625 C1.4825 2.0525 1.1525 3.0425 0.8125 4.0625 C-2.0625 4.1875 -2.0625 4.1875 -5.1875 4.0625 C-5.8475 3.4025 -6.5075 2.7425 -7.1875 2.0625 C-6.5275 2.0625 -5.8675 2.0625 -5.1875 2.0625 C-5.1875 1.4025 -5.1875 0.7425 -5.1875 0.0625 C-2.1875 -0.9375 -2.1875 -0.9375 0 0 Z " fill="#8BC852" transform="translate(383.1875,421.9375)"/>
<path d="M0 0 C0.33 1.65 0.66 3.3 1 5 C-2.90838866 5 -4.11594107 3.49432124 -7 1 C-4.53721199 -0.231394 -2.7204945 -0.07159196 0 0 Z " fill="#182713" transform="translate(511,384)"/>
<path d="M0 0 C1.65 0 3.3 0 5 0 C5 2.64 5 5.28 5 8 C4.67 7.34 4.34 6.68 4 6 C3.34 6 2.68 6 2 6 C1.34 4.02 0.68 2.04 0 0 Z " fill="#71B546" transform="translate(432,528)"/>
<path d="M0 0 C2.475 0.495 2.475 0.495 5 1 C5.33 3.64 5.66 6.28 6 9 C3.59927045 6.11912454 1.52708963 3.43595166 0 0 Z " fill="#A8DB65" transform="translate(338,461)"/>
<path d="M0 0 C0.33 0 0.66 0 1 0 C1 2.31 1 4.62 1 7 C1.66 7 2.32 7 3 7 C2.67 8.98 2.34 10.96 2 13 C1.34 13 0.68 13 0 13 C0 8.71 0 4.42 0 0 Z " fill="#A7E161" transform="translate(293,419)"/>
<path d="M0 0 C2.97 0.495 2.97 0.495 6 1 C6 1.66 6 2.32 6 3 C6.66 3 7.32 3 8 3 C8 3.66 8 4.32 8 5 C4.62537285 4.45276317 2.91765 3.9451 0 2 C0 1.34 0 0.68 0 0 Z " fill="#BFE274" transform="translate(500,386)"/>
<path d="M0 0 C0.99 0.33 1.98 0.66 3 1 C3.66 0.67 4.32 0.34 5 0 C5 0.66 5 1.32 5 2 C5.66 2.33 6.32 2.66 7 3 C0.25 4 0.25 4 -2 4 C-1.34 2.68 -0.68 1.36 0 0 Z " fill="#426D2E" transform="translate(356,433)"/>
<path d="M0 0 C1.65 0.33 3.3 0.66 5 1 C5.33 1.99 5.66 2.98 6 4 C4.02 4.33 2.04 4.66 0 5 C-0.33 4.01 -0.66 3.02 -1 2 C-0.67 1.34 -0.34 0.68 0 0 Z " fill="#5A8E39" transform="translate(364,428)"/>
<path d="M0 0 C6.15234375 0.5859375 6.15234375 0.5859375 8 1 C8.33 1.66 8.66 2.32 9 3 C6.36 3 3.72 3 1 3 C0.67 2.01 0.34 1.02 0 0 Z " fill="#9FDF61" transform="translate(435,421)"/>
<path d="M0 0 C0.66 0.99 1.32 1.98 2 3 C0.68 4.32 -0.64 5.64 -2 7 C-2.5534764 4.92446352 -3 3.15634036 -3 1 C-2.01 0.67 -1.02 0.34 0 0 Z " fill="#80C645" transform="translate(451,511)"/>
<path d="M0 0 C2.0625 1.75 2.0625 1.75 4 4 C3.75 6.25 3.75 6.25 3 8 C1.68 7.01 0.36 6.02 -1 5 C-0.67 3.35 -0.34 1.7 0 0 Z " fill="#28391D" transform="translate(345,474)"/>
<path d="M0 0 C-0.33 0.99 -0.66 1.98 -1 3 C-2.98 3 -4.96 3 -7 3 C-7 2.01 -7 1.02 -7 0 C-3.86650268 -1.04449911 -3.01031744 -0.93423645 0 0 Z " fill="#BAD869" transform="translate(337,379)"/>
<path d="M0 0 C3.125 -0.1875 3.125 -0.1875 6 0 C6 1.65 6 3.3 6 5 C3.36 4.34 0.72 3.68 -2 3 C-1.34 2.01 -0.68 1.02 0 0 Z " fill="#213117" transform="translate(490,376)"/>
<path d="M0 0 C2.46800047 1.15173355 4.04783565 2.04783565 6 4 C4.02 4.33 2.04 4.66 0 5 C0 3.35 0 1.7 0 0 Z " fill="#132411" transform="translate(312,585)"/>
<path d="M0 0 C1.32 0.33 2.64 0.66 4 1 C4 2.32 4 3.64 4 5 C3.01 5 2.02 5 1 5 C0.67 3.35 0.34 1.7 0 0 Z " fill="#7DBF49" transform="translate(401,514)"/>
<path d="M0 0 C0.68707555 2.49064888 1 4.37886292 1 7 C0.01 8.485 0.01 8.485 -1 10 C-1 9.01 -1 8.02 -1 7 C-1.66 7 -2.32 7 -3 7 C-3 6.34 -3 5.68 -3 5 C-2.34 5 -1.68 5 -1 5 C-0.67 3.35 -0.34 1.7 0 0 Z " fill="#A0E859" transform="translate(435,485)"/>
<path d="M0 0 C0.66 0 1.32 0 2 0 C5.11450382 4.15267176 5.11450382 4.15267176 4.6875 7.3125 C4.460625 7.869375 4.23375 8.42625 4 9 C0 3.375 0 3.375 0 0 Z " fill="#A0D55B" transform="translate(385,484)"/>
<path d="M0 0 C0.6875 1.6875 0.6875 1.6875 1 4 C-0.3125 6.75 -0.3125 6.75 -2 9 C-2.66 9 -3.32 9 -4 9 C-2.80100302 5.9168649 -1.52299523 2.93720508 0 0 Z " fill="#94C35B" transform="translate(441,472)"/>
<path d="M0 0 C0 0.66 0 1.32 0 2 C-0.99 2 -1.98 2 -3 2 C-3.66 3.32 -4.32 4.64 -5 6 C-6.32 5.34 -7.64 4.68 -9 4 C-2.25 0 -2.25 0 0 0 Z " fill="#192C13" transform="translate(375,429)"/>
<path d="M0 0 C2.375 0.3125 2.375 0.3125 5 1 C5.66 1.99 6.32 2.98 7 4 C6.34 4 5.68 4 5 4 C5 4.66 5 5.32 5 6 C5.66 6.33 6.32 6.66 7 7 C6.01 7 5.02 7 4 7 C3.896875 6.401875 3.79375 5.80375 3.6875 5.1875 C2.91123545 2.71756736 1.92911079 1.67748765 0 0 Z " fill="#66A343" transform="translate(450,426)"/>
<path d="M0 0 C1.98 0.495 1.98 0.495 4 1 C4 1.66 4 2.32 4 3 C4.99 3.33 5.98 3.66 7 4 C1.25 4.125 1.25 4.125 -1 3 C-0.67 2.01 -0.34 1.02 0 0 Z " fill="#ACE457" transform="translate(427,418)"/>
<path d="M0 0 C0.66 0 1.32 0 2 0 C1.6875 2.875 1.6875 2.875 1 6 C0.01 6.66 -0.98 7.32 -2 8 C-1.125 1.125 -1.125 1.125 0 0 Z " fill="#BAEB67" transform="translate(300,404)"/>
<path d="M0 0 C0.33 0.66 0.66 1.32 1 2 C1.66 2 2.32 2 3 2 C3.33 2.99 3.66 3.98 4 5 C3.01 5.99 2.02 6.98 1 8 C0.34 5.69 -0.32 3.38 -1 1 C-0.67 0.67 -0.34 0.34 0 0 Z " fill="#8CD250" transform="translate(451,505)"/>
<path d="M0 0 C2.72426311 2.35277269 3.8141763 4.62496331 5 8 C3.0625 7.375 3.0625 7.375 1 6 C0.25 2.875 0.25 2.875 0 0 Z " fill="#80B24C" transform="translate(393,496)"/>
</svg>